<svg xmlns="http://www.w3.org/2000/svg" xmlns:xlink="http://www.w3.org/1999/xlink" viewBox="0 0 1000 1000" width="1000" height="1000" preserveAspectRatio="xMidYMid meet" style="width: 100%; height: 100%; transform: translate3d(0px, 0px, 0px); content-visibility: visible;" id="Loading"><defs><clipPath id="__lottie_element_9477"><rect width="1000" height="1000" x="0" y="0"/></clipPath></defs><g clip-path="url(#__lottie_element_9477)"><g transform="matrix(1,0,0,1,669.1873779296875,739.0828247070312)" opacity="1" style="display: block;"><g opacity="1" transform="matrix(1,0,0,1,70.25,70.25)"><path fill="rgb(0,0,0)" fill-opacity="1" d=" M70,0 C70,38.65999984741211 38.65999984741211,70 0,70 C-38.65999984741211,70 -70,38.65999984741211 -70,0 C-70,-38.65999984741211 -38.65999984741211,-70 0,-70 C38.65999984741211,-70 70,-38.65999984741211 70,0z"/></g></g><g transform="matrix(1,0,0,1,674.2139282226562,582.1771850585938)" opacity="1" style="display: block;"><g opacity="1" transform="matrix(1,0,0,1,70.25,70.25)"><path fill="rgb(142,142,142)" fill-opacity="1" d=" M70,0 C70,38.65999984741211 38.65999984741211,70 0,70 C-38.65999984741211,70 -70,38.65999984741211 -70,0 C-70,-38.65999984741211 -38.65999984741211,-70 0,-70 C38.65999984741211,-70 70,-38.65999984741211 70,0z"/></g></g><g transform="matrix(1,0,0,1,678.7720947265625,428.4727783203125)" opacity="1" style="display: block;"><g opacity="1" transform="matrix(1,0,0,1,70.25,70.25)"><path fill="rgb(142,142,142)" fill-opacity="1" d=" M70,0 C70,38.65999984741211 38.65999984741211,70 0,70 C-38.65999984741211,70 -70,38.65999984741211 -70,0 C-70,-38.65999984741211 -38.65999984741211,-70 0,-70 C38.65999984741211,-70 70,-38.65999984741211 70,0z"/></g></g><g transform="matrix(1,0,0,1,685.6403198242188,278.57904052734375)" opacity="1" style="display: block;"><g opacity="1" transform="matrix(1,0,0,1,70.25,70.25)"><path fill="rgb(255,255,255)" fill-opacity="1" d=" M70,0 C70,38.65999984741211 38.65999984741211,70 0,70 C-38.65999984741211,70 -70,38.65999984741211 -70,0 C-70,-38.65999984741211 -38.65999984741211,-70 0,-70 C38.65999984741211,-70 70,-38.65999984741211 70,0z"/></g></g></g></svg>